<svg width="16" height="16" viewBox="0 0 16 16" fill="none" xmlns="http://www.w3.org/2000/svg">
<path d="M11.9583 11.6381C12.0632 10.7904 12.0318 10.666 12.6831 10.8034L12.8484 10.8175C13.3492 10.8396 14.0043 10.7394 14.3892 10.566C15.2177 10.1933 15.7089 9.57105 14.892 9.73458C13.0286 10.1073 12.9004 9.49553 12.9004 9.49553C14.8682 6.66493 15.6907 3.07177 14.9807 2.19227C13.0442 -0.206826 9.69202 0.927641 9.63598 0.957059L9.61814 0.960263C9.24992 0.886191 8.83785 0.842002 8.375 0.834685C7.53168 0.821277 6.89183 1.04904 6.40643 1.40596C6.40643 1.40596 0.426493 -0.982613 0.704729 4.40984C0.763832 5.55704 2.40066 13.09 4.3529 10.8147C5.06639 9.98267 5.75599 9.27919 5.75599 9.27919C6.09835 9.49979 6.50831 9.61226 6.9383 9.57188L6.97147 9.54437C6.96109 9.6477 6.96565 9.74874 6.98483 9.86837C6.48197 10.4131 6.62973 10.5088 5.62426 10.7094C4.607 10.9127 5.20463 11.2746 5.5947 11.3691C6.06776 11.4839 7.16205 11.6463 7.90163 10.6427L7.87224 10.7572C8.06952 10.9103 8.05616 11.8571 8.08413 12.5336C8.11211 13.2101 8.15888 13.8414 8.30105 14.2135C8.4433 14.5857 8.61111 15.5444 9.93253 15.2698C11.037 15.0404 11.8813 14.7101 11.9583 11.638L11.9583 11.6381H11.9583Z" fill="#434343"/>
<path d="M12.6615 11.558L12.6437 11.7065C12.597 13.3608 12.3218 14.3138 11.8931 14.9055C11.3918 15.5975 10.7713 15.7805 10.0729 15.9257C8.27451 16.2992 7.89663 15.1769 7.68443 14.5464C7.67225 14.5103 7.66116 14.4774 7.64851 14.4443C7.5567 14.2041 7.49807 13.9009 7.45933 13.561C7.42546 13.2639 7.40589 12.919 7.39102 12.5597C7.38693 12.4602 7.38293 12.3218 7.37885 12.1805C7.37609 12.0832 7.38097 11.9901 7.38969 11.9028C7.17984 11.994 6.96786 12.0521 6.76148 12.0864C6.21171 12.1775 5.71938 12.0913 5.42379 12.0197C5.17487 11.9594 4.85986 11.8188 4.66597 11.6416C4.63233 11.6109 4.60105 11.5787 4.57228 11.5449C4.40762 11.6786 4.23809 11.7736 4.06487 11.8334C3.42031 12.0561 2.85277 11.8227 2.3577 11.2902C2.00197 10.9075 1.68068 10.3423 1.39821 9.69347C0.582861 7.82093 0.0460534 5.10926 0.0115508 4.44121C-0.276507 -1.14275 4.90593 0.196406 6.31223 0.660315C6.55037 0.522692 6.81201 0.40901 7.09929 0.325643C7.47646 0.216222 7.90221 0.158001 8.38267 0.165625C8.64132 0.169658 8.87971 0.183453 9.09931 0.206007C9.27175 0.223687 9.43813 0.246924 9.5987 0.275273C10.1793 0.112891 11.527 -0.172251 12.8775 0.139866C13.8044 0.353993 14.7554 0.83123 15.5215 1.78031C16.0283 2.40804 16.0229 3.83764 15.5539 5.48425C15.2156 6.6719 14.6449 8.01501 13.8699 9.26333C14.0434 9.22386 14.3176 9.16526 14.7509 9.07862C15.0887 9.01096 15.3528 9.03641 15.5469 9.12655C15.8787 9.28054 16.0205 9.53727 15.9976 9.8682C15.9859 10.0374 15.9156 10.2058 15.796 10.3649C15.6005 10.6246 15.1773 10.9489 14.6757 11.1745C14.4303 11.2851 14.1133 11.3705 13.7857 11.424C13.464 11.4765 13.119 11.4997 12.8156 11.4863H12.7858L12.6712 11.4766L12.6615 11.558L12.6615 11.558Z" fill="black"/>
<path d="M14.8886 9.7343C13.0249 10.107 12.8968 9.49526 12.8968 9.49526C14.8645 6.66449 15.6871 3.07127 14.9772 2.19184C13.0406 -0.207091 9.68836 0.927456 9.63247 0.956862L9.61447 0.959987C9.24625 0.885914 8.83418 0.841805 8.3711 0.834488C7.52784 0.82108 6.88816 1.04876 6.40283 1.40568C6.40283 1.40568 0.422739 -0.982821 0.700812 4.40957C0.759996 5.55684 2.39682 13.0898 4.34905 10.8145C5.06261 9.98247 5.75206 9.279 5.75206 9.279C6.09449 9.4996 6.50445 9.61206 6.93421 9.57168L6.96761 9.54417C6.95724 9.6475 6.96195 9.74854 6.98097 9.86818C6.47803 10.4129 6.62579 10.5086 5.6204 10.7092C4.60314 10.9125 5.20069 11.2744 5.59092 11.3689C6.06399 11.4837 7.15835 11.6461 7.89786 10.6425L7.8683 10.7571C8.06541 10.9101 8.20374 11.7525 8.18056 12.516C8.15738 13.2796 8.1419 13.8038 8.29719 14.2134C8.45242 14.6229 8.60718 15.5442 9.92883 15.2696C11.0333 15.0402 11.6055 14.4455 11.6851 13.4537C11.7416 12.7486 11.8695 12.8528 11.8776 12.2224L11.9802 11.9239C12.0984 10.9681 11.999 10.6597 12.6794 10.8031L12.8446 10.8172C13.3455 10.8393 14.0009 10.7392 14.3856 10.5658C15.2139 10.1931 15.7052 9.57077 14.8884 9.7343H14.8885H14.8886Z" fill="#336791"/>
<path d="M7.14098 9.99461C7.04636 10.0971 6.96824 10.1933 6.90229 10.2744C6.61934 10.6227 6.53155 10.7307 5.65506 10.9057C5.49669 10.9374 5.39051 10.9691 5.32488 10.9999C5.40623 11.0562 5.52892 11.1041 5.63542 11.1298C5.85227 11.1825 6.21065 11.2461 6.59429 11.1825C6.968 11.1205 7.37167 10.9348 7.69878 10.4907C7.70939 10.4763 7.71827 10.4604 7.7255 10.4435C7.7589 10.3653 7.75136 10.2686 7.71749 10.1766C7.68133 10.0782 7.61752 9.99103 7.5419 9.93861C7.52437 9.92641 7.50606 9.91643 7.48744 9.90889C7.43754 9.88885 7.37976 9.86622 7.33285 9.87018C7.28435 9.87429 7.22289 9.90577 7.141 9.99461H7.14098ZM6.29734 5.07352C6.29711 5.07291 6.29743 5.07208 6.29758 5.07138C6.30763 5.00158 6.37335 4.95267 6.47136 4.92987C6.54657 4.91242 6.64592 4.90862 6.75147 4.92264L6.75454 4.92302C6.86104 4.93735 6.95629 4.96729 7.02428 5.00409C7.11294 5.0521 7.16269 5.11695 7.1527 5.18705C7.1439 5.24779 7.07128 5.34098 6.96596 5.39775C6.89051 5.43844 6.79659 5.46397 6.69567 5.45032L6.69418 5.45018C6.57825 5.43418 6.47726 5.36933 6.40723 5.29793C6.33248 5.2218 6.29028 5.13045 6.29736 5.07352H6.29734ZM13.2067 4.46781C13.2189 4.78831 13.1776 5.04823 13.1344 5.32034C13.1002 5.53553 13.0647 5.75879 13.0564 6.01003C13.0485 6.24831 13.0811 6.51173 13.1146 6.78262C13.1996 7.46774 13.29 8.19759 12.8157 8.95418L12.839 8.98237C12.8583 9.00577 12.877 9.0284 12.895 9.05049C13.7148 7.7989 14.3123 6.42547 14.6545 5.22387C15.0485 3.84045 15.1112 2.71139 14.7846 2.30685C13.46 0.665875 11.4162 0.776978 10.3666 0.974492C10.3433 0.978833 10.3206 0.983253 10.2983 0.987673C11.5559 1.52443 12.3465 2.49949 12.7803 3.26462C12.9353 3.5381 13.0458 3.78743 13.1159 3.98067C13.1946 4.1977 13.2238 4.36785 13.2118 4.4426C13.2104 4.4513 13.2087 4.45967 13.2067 4.46783V4.46781ZM12.521 8.54307C12.7973 7.97172 12.7249 7.38712 12.6564 6.83512C12.6213 6.55119 12.587 6.2752 12.5964 5.996C12.6059 5.70727 12.6426 5.47631 12.6779 5.25381C12.7114 5.04357 12.7435 4.84111 12.7476 4.6196C11.6917 4.49188 11.2833 4.7704 11.2109 5.2087C11.082 5.98876 11.8147 7.26253 12.1867 7.90939C12.2876 8.08495 12.364 8.21754 12.3984 8.29839C12.4364 8.38785 12.4779 8.469 12.521 8.54307ZM6.72034 9.78338C6.70722 9.78636 6.69897 9.78597 6.69857 9.78018C6.62248 9.77827 6.54735 9.77226 6.47338 9.76219C6.2295 9.72912 5.99702 9.65331 5.78371 9.54198C5.59249 9.7391 5.07721 10.2784 4.51455 10.9349C4.31193 11.171 4.10625 11.3183 3.89938 11.3897C3.4598 11.5415 3.05503 11.3632 2.68831 10.9688C2.36803 10.6243 2.07314 10.1025 1.80993 9.498C1.01518 7.67277 0.492678 5.04341 0.459347 4.39777C0.186232 -0.897311 5.52018 0.812702 6.36752 1.11689C6.87163 0.783591 7.52263 0.575714 8.36322 0.589053C8.77592 0.59561 9.15766 0.645445 9.5104 0.72888C9.57963 0.707928 9.6536 0.686135 9.73297 0.663501C9.86125 0.626777 10.0493 0.578838 10.28 0.535479C11.429 0.319228 13.6702 0.202489 15.1472 2.03221C15.5639 2.54838 15.5298 3.82771 15.0983 5.34273C14.7269 6.64652 14.0657 8.14469 13.1541 9.48552C13.2609 9.58313 13.6226 9.7353 14.8314 9.49337C15.064 9.4468 15.2298 9.45671 15.3366 9.50632C15.4758 9.57094 15.5353 9.67808 15.5258 9.81599C15.52 9.89996 15.4804 9.98981 15.4125 10.0801C15.2574 10.2863 14.9031 10.552 14.4709 10.7466C14.1476 10.892 13.6551 10.9897 13.2037 11.0148C12.9378 11.0295 12.683 11.0196 12.4804 10.9804C12.4285 10.9703 12.3791 10.9581 12.3328 10.9435C12.2952 11.276 12.239 11.7371 12.1788 12.1998C12.1029 12.7838 12.0217 13.3627 11.9656 13.678C11.8705 14.2125 11.7088 14.6056 11.4127 14.904C11.1182 15.2008 10.7044 15.3888 10.1056 15.5132C9.361 15.6679 8.87064 15.4988 8.53866 15.2276C8.21202 14.9609 8.05671 14.6089 7.95823 14.3703C7.86195 14.1366 7.79703 13.5867 7.76292 12.8772C7.73824 12.3624 7.7285 11.7564 7.73385 11.1236C7.39691 11.421 7.02429 11.5648 6.67187 11.6232C6.20517 11.7006 5.77982 11.6257 5.52359 11.5636C5.33621 11.5182 5.1046 11.4174 4.96957 11.2939C4.88964 11.2209 4.83478 11.1354 4.81985 11.0384C4.80216 10.9233 4.83777 10.8127 4.94623 10.7138C5.05076 10.6185 5.24419 10.5321 5.56305 10.4684C6.27269 10.3267 6.33596 10.2489 6.53967 9.99809C6.58864 9.93781 6.64452 9.86901 6.72037 9.78336L6.72034 9.78338ZM5.40041 9.28724C5.32905 9.22819 5.26122 9.16456 5.19748 9.09682C4.86518 8.74409 4.64126 8.27766 4.58938 7.75782C4.57083 7.5725 4.57413 7.38101 4.60227 7.18632C4.71506 6.40421 4.67223 5.70454 4.65013 5.34265C4.64409 5.24443 4.6396 5.17044 4.63991 5.11306C4.63779 5.00524 4.6062 2.73111 5.95191 1.44882C4.71316 1.05539 0.698909 0.102897 0.919367 4.37674C0.951514 5.00005 1.45978 7.54697 2.23388 9.32487C2.47777 9.88494 2.74624 10.3633 3.03107 10.6697C3.26937 10.9261 3.51153 11.0492 3.74614 10.9682C3.87637 10.9232 4.01462 10.8204 4.16097 10.6498C4.68528 10.0381 5.17508 9.52093 5.40041 9.28723V9.28724ZM5.11787 4.64436C5.23804 4.57182 5.37535 4.50239 5.52318 4.4438C5.74977 4.35389 6.00301 4.2779 6.25341 4.24141C6.51844 4.20278 6.78542 4.20643 7.026 4.27973C7.402 4.39434 7.70098 4.66508 7.8162 5.18134C8.22906 7.03247 7.85967 7.82816 7.57074 8.45048C7.52099 8.55754 7.47375 8.65927 7.43815 8.74972C7.4365 8.75544 7.43454 8.76116 7.4324 8.76687C7.26185 9.21249 7.4952 8.60144 7.39704 8.85649C7.31514 9.06939 7.23953 9.26583 7.19615 9.44026C7.229 9.43203 7.26138 9.42692 7.29314 9.42418C7.44773 9.41115 7.56461 9.45611 7.66419 9.49612C7.71425 9.51623 7.76275 9.54283 7.80888 9.57484C7.96065 9.68 8.0853 9.84596 8.15226 10.0279C8.17497 10.0896 8.19132 10.1538 8.20021 10.2187C8.20697 10.2408 8.21026 10.2643 8.20964 10.2885C8.18324 11.2041 8.18763 12.1237 8.22292 12.858C8.25475 13.52 8.30929 14.0185 8.38576 14.2042C8.46696 14.4008 8.59365 14.6899 8.83455 14.8866C9.07002 15.0789 9.43281 15.1959 10.0099 15.076C10.5154 14.971 10.8548 14.8221 11.0807 14.5944C11.3052 14.3681 11.4316 14.0489 11.5109 13.6029C11.5689 13.2771 11.6489 12.7089 11.7224 12.1438C11.8131 11.4465 11.8954 10.7427 11.9151 10.5C11.8712 9.65036 12.3026 9.49925 12.6037 9.41597C12.5716 9.37139 12.5285 9.31919 12.48 9.26044C12.3259 9.07382 12.1286 8.83485 11.9726 8.4681C11.9488 8.41218 11.878 8.28911 11.7844 8.12634C11.3862 7.43406 10.6023 6.07107 10.7563 5.13876C10.8661 4.47369 11.3884 4.03302 12.6943 4.16454L12.6811 4.12758C12.619 3.95628 12.5191 3.7318 12.3762 3.47972C11.9128 2.66247 11.004 1.59041 9.49889 1.18777C9.31709 1.13915 9.09718 1.0929 8.68613 1.05106C8.57876 1.04009 8.46858 1.03682 8.35603 1.03507C5.68881 0.992695 5.20404 3.56599 5.11782 4.64437L5.11787 4.64436ZM5.1001 5.11444C5.1001 5.11657 5.10002 5.11863 5.09995 5.12069C5.10026 5.15535 5.10459 5.22531 5.11017 5.31644C5.13319 5.69317 5.17775 6.4218 5.05868 7.24758C5.03542 7.40852 5.03251 7.56533 5.04752 7.71583C5.08941 8.13493 5.27019 8.5112 5.53843 8.79597C5.80321 9.07715 6.15281 9.26773 6.53651 9.31977C6.6063 9.32922 6.67712 9.33417 6.74848 9.33433C6.79855 9.13574 6.87919 8.92628 6.96588 8.70088C7.04125 8.50496 6.80578 9.11715 6.99945 8.61119C7.00188 8.60486 7.00456 8.59877 7.00746 8.59275C7.05202 8.47868 7.09989 8.3755 7.15043 8.26684C7.41184 7.70373 7.7461 6.98363 7.36523 5.27575C7.29127 4.94443 7.11192 4.7745 6.88886 4.70653C6.72121 4.6554 6.52386 4.65449 6.32196 4.6839C6.10534 4.71544 5.88882 4.78022 5.69642 4.85656C5.35988 4.98999 5.10475 5.10269 5.10011 5.11442L5.1001 5.11444ZM14.9233 9.9306C13.7057 10.1744 13.1389 9.99544 12.878 9.80395C12.8424 9.81507 12.8042 9.82551 12.7641 9.83641C12.6014 9.88068 12.3483 9.94972 12.3754 10.4801C12.3944 10.5001 12.4663 10.5212 12.5707 10.5414C12.7367 10.5736 12.9512 10.5813 13.1785 10.5688C13.5771 10.5466 14.0051 10.4636 14.2779 10.3409C14.5593 10.2141 14.7942 10.0611 14.9389 9.92756L14.9234 9.93061L14.9233 9.9306ZM12.3184 4.92897V4.92911C12.3251 4.9759 12.2865 5.05531 12.2185 5.12411C12.1533 5.18987 12.06 5.24946 11.9535 5.26393L11.9528 5.26408C11.861 5.27642 11.7753 5.2531 11.7063 5.21593C11.6113 5.16479 11.5463 5.08402 11.5388 5.03266V5.03251C11.5313 4.97918 11.5736 4.92758 11.648 4.88728C11.712 4.85261 11.8026 4.82426 11.9043 4.81047C12.006 4.79675 12.1011 4.80002 12.1723 4.81641C12.2553 4.83538 12.3104 4.87394 12.3182 4.92728L12.3184 4.92897H12.3184Z" fill="white"/>
</svg>
