<svg width="16" height="18" viewBox="0 0 16 18" fill="none" xmlns="http://www.w3.org/2000/svg">
<path d="M2.52818 12.3217L2.55638 12.2522C2.62776 12.2811 2.71032 12.3045 2.79915 12.3296L2.81408 12.3339C2.9065 12.3601 3.00488 12.3885 3.09274 12.4266C3.18042 12.4646 3.26459 12.515 3.32422 12.5894C3.3858 12.6662 3.41656 12.7627 3.40641 12.8817L3.33168 12.8753L3.40641 12.8817C3.39481 13.0176 3.34066 13.1147 3.25026 13.1714C3.16422 13.2254 3.05803 13.2346 2.9576 13.2262C2.77565 13.2109 2.57272 13.1336 2.44525 13.0851C2.43255 13.0802 2.42059 13.0757 2.40949 13.0715C1.7586 12.8267 1.37159 12.6065 1.11712 12.4332C1.00488 12.3568 0.918845 12.2898 0.849149 12.2354C0.840066 12.2284 0.83126 12.2215 0.82271 12.2148C0.796108 12.1942 0.772578 12.1762 0.751169 12.1606C0.747287 12.4962 0.749324 12.8345 0.751359 13.1723C0.752335 13.3343 0.75331 13.4962 0.753632 13.6576M2.52818 12.3217L0.678632 13.6577M2.52818 12.3217L2.55638 12.2522C1.91134 11.9905 1.26567 11.6487 0.946278 11.2013L0.885237 11.2449L0.946275 11.2013C0.738844 10.9108 0.74315 10.6989 0.750567 10.334C0.752087 10.2592 0.753738 10.1779 0.753722 10.0883C0.753694 9.94403 0.7539 9.7995 0.754105 9.65483C0.7545 9.37705 0.754896 9.09879 0.753642 8.82119C0.796684 8.85073 0.845258 8.88667 0.895936 8.92488C0.91626 8.9402 0.937004 8.95596 0.957843 8.97179C1.04142 9.03527 1.12651 9.09992 1.1921 9.14235L1.23284 9.07938M2.52818 12.3217L-0.0666824 4.66999M0.753632 13.6576L0.678632 13.6577M0.753632 13.6576C0.753632 13.6576 0.753632 13.6576 0.753632 13.6576L0.678632 13.6577M0.753632 13.6576C0.753731 13.7029 0.753353 13.7454 0.752995 13.7858C0.751002 14.0103 0.749617 14.1664 0.834398 14.3454L0.834403 14.3454C0.939151 14.5668 1.13267 14.7692 1.36359 14.9469C1.59374 15.1239 1.85608 15.2726 2.09182 15.3878M0.678632 13.6577C0.678727 13.7011 0.678315 13.7425 0.677918 13.7823C0.675679 14.007 0.673937 14.1818 0.766612 14.3775C0.990471 14.8505 1.58197 15.2221 2.0589 15.4552M2.09182 15.3878L2.0589 15.4552M2.09182 15.3878C2.09183 15.3878 2.09183 15.3878 2.09184 15.3878L2.0589 15.4552M2.09182 15.3878C2.24373 15.462 2.50457 15.5596 2.74185 15.6465C2.77255 15.6577 2.80283 15.6688 2.83237 15.6796C2.91598 15.7101 2.99364 15.7384 3.05783 15.7626C3.10128 15.779 3.1393 15.7938 3.16931 15.8062C3.19716 15.8178 3.22401 15.8297 3.24079 15.8405L3.20021 15.9036M2.0589 15.4552C2.23546 15.5414 2.55113 15.6567 2.80691 15.7501C3.00352 15.8219 3.16475 15.8808 3.20021 15.9036M3.20021 15.9036L3.24082 15.8406M3.20021 15.9036C3.41176 16.0397 3.38965 16.3312 3.21081 16.4527C3.05349 16.5594 2.86432 16.4863 2.70021 16.4228C2.67073 16.4114 2.64207 16.4003 2.61455 16.3906M3.24082 15.8406L13.3324 4.66935C13.3331 4.60428 13.3342 4.54143 13.3353 4.48044C13.3434 4.02766 13.3496 3.67796 13.1382 3.28737C11.5125 0.283168 1.96562 0.194149 0.20081 3.28178C-0.00788508 3.6469 -0.00159218 4.03264 0.00582524 4.4873C0.00679538 4.54677 0.00778476 4.60742 0.00831487 4.66935M3.24082 15.8406C3.5015 16.0083 3.47231 16.3658 3.25294 16.5147L3.25292 16.5147C3.1359 16.5941 3.00768 16.5914 2.89439 16.5659C2.81693 16.5484 2.73614 16.5172 2.66682 16.4904C2.63893 16.4796 2.6129 16.4696 2.58968 16.4614L2.61455 16.3906M3.24082 15.8406L-0.0666824 4.66999M2.61455 16.3906C1.63284 16.0456 0.208269 15.4074 0.0245808 14.2228C-0.00915151 14.0053 -0.000456138 12.827 0.00610958 11.9374C0.00904195 11.54 0.0115495 11.2002 0.00966287 11.0293M2.61455 16.3906L2.58967 16.4614C2.09689 16.2882 1.48763 16.0397 0.97734 15.683C0.467465 15.3266 0.0467655 14.8553 -0.0495333 14.2343C-0.0627495 14.1491 -0.0692918 13.9383 -0.0724721 13.6698C-0.0756882 13.3983 -0.0754524 13.0603 -0.0738849 12.7153C-0.0726817 12.4505 -0.0706975 12.1817 -0.0688789 11.9354C-0.0659513 11.5388 -0.0634529 11.2004 -0.0653326 11.0301L0.00966287 11.0293M0.00966287 11.0293C-0.00247107 9.92302 0.002589 8.82041 0.00765447 7.71663C0.0123057 6.70312 0.0169614 5.68862 0.00831487 4.66935M0.00966287 11.0293L-0.0653326 11.0301C-0.0769777 9.96842 -0.0727951 8.9102 -0.067965 7.85169L-0.0673455 7.71644C-0.0626938 6.70281 -0.0580401 5.68876 -0.0666824 4.66999M0.00831487 4.66935L-0.0666824 4.66999M0.00831487 4.66935L-0.0666824 4.66999M-0.0666824 4.66999C-0.0672064 4.60877 -0.0682354 4.54836 -0.0692512 4.48872C-0.076953 4.03657 -0.0838997 3.62875 0.135696 3.24457C0.590665 2.44857 1.53983 1.86731 2.71505 1.48625C3.89285 1.10435 5.31067 0.919201 6.72197 0.925138C8.13327 0.931076 9.54236 1.12812 10.7027 1.51373C11.8601 1.89835 12.7841 2.47535 13.2042 3.25167C13.4255 3.66062 13.4187 4.03074 13.4103 4.48219C13.4092 4.54323 13.4081 4.60576 13.4074 4.67007L13.4074 4.67009C13.4036 5.06199 13.404 5.45513 13.4043 5.84818C13.4045 5.98527 13.4046 6.12235 13.4046 6.25936C13.4044 6.80228 13.4053 7.34369 13.4063 7.88519C13.4071 8.40269 13.408 8.92028 13.408 9.43932C13.408 9.47025 13.4085 9.50713 13.4092 9.54767C13.4105 9.63404 13.4121 9.73701 13.409 9.8343C13.4067 9.90666 13.4018 9.97902 13.3919 10.0434C13.3822 10.1061 13.3669 10.1683 13.3399 10.2158C13.3399 10.2158 13.3399 10.2158 13.3398 10.2158L13.2747 10.1787C13.1782 10.3485 12.8796 10.3939 12.7393 10.2084C12.6205 10.0512 12.6426 9.36788 12.6563 8.94176C12.6584 8.87904 12.6602 8.82189 12.6614 8.77282C12.6453 8.78143 12.6228 8.7952 12.5938 8.81501C12.591 8.81698 12.588 8.81899 12.5851 8.82104M12.5851 8.82104C12.5861 8.78738 12.5868 8.75669 12.5873 8.72948C12.5209 8.77148 12.4323 8.83954 12.3441 8.90734C12.2504 8.97935 12.1571 9.05107 12.0911 9.0909C9.32105 10.7643 3.80259 10.7418 1.23284 9.07938M12.5851 8.82104C12.5426 8.85048 12.4937 8.88723 12.4422 8.92663C12.4253 8.93949 12.4082 8.95269 12.3908 8.966C12.2975 9.03779 12.1998 9.11285 12.1299 9.1551M12.5851 8.82104L12.1299 9.1551M1.23284 9.07938L1.1921 9.14235C2.49409 9.98465 4.53266 10.4068 6.5867 10.4111C8.64121 10.4154 10.7287 10.0016 12.1299 9.1551M1.23284 9.07938L12.1299 9.1551M0.678038 12.0289L0.678001 12.029C0.677546 12.0566 0.677137 12.0842 0.676769 12.1119L0.752364 12.0702C0.726832 12.0535 0.702551 12.0396 0.678307 12.0289L0.678186 12.0289M0.678038 12.0289L0.730966 12.082L0.731056 12.0819L0.678186 12.0289M0.678038 12.0289L0.678053 12.0289M0.678038 12.0289L0.678003 12.0289L0.678053 12.0289M0.678186 12.0289L0.678093 12.0288L0.678053 12.0289M0.678186 12.0289L0.678053 12.0289M4.38532 16.8751L4.38531 16.8751C4.07622 16.6566 3.9644 16.3489 3.92844 16.0091C3.91056 15.8401 3.91116 15.6611 3.91595 15.4792C3.91745 15.4223 3.91935 15.3654 3.92125 15.3083C3.92549 15.181 3.92976 15.0528 3.9297 14.9231C3.92956 14.6546 3.9377 14.5069 3.9757 14.3802C4.00697 14.2759 4.05856 14.1871 4.1325 14.0598C4.14243 14.0427 4.15277 14.0249 4.16351 14.0063C4.14596 13.9578 4.12685 13.9256 4.10718 13.8966C4.10184 13.8888 4.09591 13.8804 4.08961 13.8716C4.06913 13.8428 4.04471 13.8085 4.02385 13.7666L4.38532 16.8751ZM4.38532 16.8751C4.67275 17.0782 4.96094 17.0767 5.30848 17.0748M4.38532 16.8751L5.30848 17.0748M11.452 15.6761L11.4519 15.6761C11.3428 15.6098 11.2591 15.4729 11.2566 15.3297C11.2553 15.2562 11.2754 15.1803 11.3251 15.1125C11.3746 15.0449 11.4502 14.9897 11.553 14.9514M11.452 15.6761L14.4896 15.0441C14.7146 15.1692 14.7177 15.5558 14.4292 15.6453M11.452 15.6761C11.4763 15.6909 11.5095 15.6995 11.54 15.7057C11.5733 15.7125 11.6142 15.7182 11.6609 15.7233C11.7544 15.7333 11.8759 15.7409 12.0149 15.7465C12.2932 15.7577 12.6461 15.7611 12.9953 15.7598C13.3446 15.7586 13.6911 15.7526 13.9567 15.745C14.0895 15.7412 14.2025 15.7369 14.2856 15.7327C14.3271 15.7305 14.3617 15.7283 14.3878 15.7261C14.4009 15.7251 14.4124 15.7239 14.4219 15.7227C14.4297 15.7217 14.4413 15.7201 14.4514 15.7169L14.4292 15.6453M11.452 15.6761L11.4909 15.612C11.6858 15.7303 14.3275 15.6768 14.4292 15.6453M11.553 14.9514L11.5791 15.0217L11.5529 14.9514C11.553 14.9514 11.553 14.9514 11.553 14.9514ZM11.553 14.9514C11.5613 14.9483 11.5691 14.9471 11.5716 14.9467L11.5718 14.9467C11.5757 14.946 11.5799 14.9455 11.5839 14.9451C11.592 14.9442 11.6022 14.9434 11.614 14.9426C11.6376 14.941 11.67 14.9394 11.7097 14.9377C11.7891 14.9343 11.8993 14.9308 12.0302 14.9274C12.2921 14.9207 12.6378 14.9148 12.9873 14.9126C13.3368 14.9105 13.6908 14.9121 13.969 14.9205C14.108 14.9248 14.2291 14.9307 14.3217 14.9389C14.3679 14.943 14.4082 14.9477 14.4406 14.9532C14.4696 14.9583 14.5023 14.9654 14.526 14.9786L14.526 14.9786C14.6679 15.0574 14.7354 15.2153 14.7268 15.3624C14.7181 15.5124 14.6298 15.6616 14.4514 15.7169L14.4292 15.6453M12.1588 13.0778C12.1202 13.0781 12.0793 13.0792 12.0371 13.0803C11.926 13.0832 11.8069 13.0863 11.7024 13.0762C11.551 13.0616 11.3921 13.017 11.3145 12.8724L12.1588 13.0778ZM12.1588 13.0778H12.1803H13.8325C13.8767 13.0778 13.9238 13.0797 13.9742 13.0817C13.9966 13.0825 14.0197 13.0834 14.0435 13.0842C14.1189 13.0867 14.1991 13.0878 14.276 13.0813C14.4257 13.0687 14.5881 13.0256 14.6714 12.8789C14.7654 12.7132 14.7541 12.5512 14.6559 12.4317C14.5621 12.3174 14.4006 12.2565 14.2213 12.2566M12.1588 13.0778L14.2213 12.2566M14.2213 12.2566H14.2213V12.3316L14.2213 12.2566ZM14.2213 12.2566H11.759H11.759M14.2213 12.2566H11.759M11.759 12.2566C11.5919 12.2566 11.4327 12.3118 11.3374 12.4219M11.759 12.2566L11.3374 12.4219M13.4763 13.5931H13.4764C13.7707 13.5939 14.0224 13.6028 14.2353 13.6103C14.2851 13.6121 14.3328 13.6138 14.3784 13.6153C14.6212 13.6232 14.8006 13.6253 14.9338 13.6059C15.0655 13.5867 15.1372 13.5485 15.1805 13.488C15.2265 13.4237 15.2517 13.3189 15.2512 13.1389C15.2508 12.9943 15.2512 12.8643 15.2515 12.7474C15.2522 12.5314 15.2527 12.3597 15.2479 12.2217C15.2443 12.1158 15.2377 12.0332 15.2263 11.9682C15.215 11.903 15.1996 11.8602 15.1813 11.831C15.1497 11.7805 15.0987 11.7536 14.974 11.7439C14.8951 11.7377 14.7995 11.739 14.6779 11.7406C14.6015 11.7416 14.5148 11.7428 14.4154 11.7423C14.0851 11.7407 11.778 11.7314 9.52246 11.7298C8.39469 11.7291 7.27998 11.7302 6.43179 11.7352C6.00765 11.7377 5.65041 11.7412 5.39157 11.7458C5.2621 11.7482 5.15763 11.7508 5.08188 11.7537C5.04395 11.7552 5.01371 11.7567 4.99134 11.7583C4.98014 11.7591 4.97137 11.7599 4.96485 11.7606C4.96113 11.761 4.95875 11.7613 4.95742 11.7615C4.95616 11.7617 4.95584 11.7618 4.95622 11.7617C4.8833 11.7789 4.83643 11.8176 4.80351 11.8762C4.76862 11.9383 4.7483 12.025 4.73893 12.1373C4.72962 12.2487 4.73158 12.3778 4.73624 12.5209C4.73734 12.5545 4.73859 12.5889 4.73986 12.624C4.74394 12.7365 4.74825 12.8554 4.74858 12.976C4.74912 13.1769 4.75828 13.3125 4.78098 13.4052C4.80294 13.495 4.83487 13.5342 4.87524 13.5565C4.92202 13.5824 4.99325 13.5937 5.11252 13.5955C5.1707 13.5964 5.23686 13.5951 5.31351 13.5935L5.31737 13.5934L13.4763 13.5931ZM13.4763 13.5931L5.57122 13.5903L13.4763 13.5931ZM2.27211 2.53767C3.21667 2.09908 4.45396 1.88322 5.65172 1.78337L5.69599 1.77967C6.83343 1.68948 8.17212 1.76144 9.3763 2.0119C10.5994 2.26629 11.6694 2.70191 12.2549 3.32556C12.4946 3.58086 12.5821 3.81406 12.5778 4.02285C12.5735 4.23306 12.4758 4.43244 12.3172 4.61836C11.9983 4.99241 11.4539 5.28787 11.0447 5.47196L11.0755 5.54036L11.0447 5.47196C9.67475 6.08842 7.58845 6.3442 5.63452 6.21434C4.65856 6.14948 3.71908 5.9886 2.92186 5.73031C2.12331 5.47159 1.47439 5.11736 1.0719 4.67046L1.0719 4.67046C0.842907 4.41622 0.758227 4.18548 0.762038 3.97926C0.765869 3.77192 0.859367 3.57627 1.01241 3.39361C1.32061 3.02576 1.85123 2.73312 2.27211 2.53767ZM2.27211 2.53767L2.24052 2.46964L2.27211 2.53767ZM5.30848 17.0748C5.34149 17.0746 5.37503 17.0745 5.40916 17.0745M5.30848 17.0748L5.40916 17.0745M5.40916 17.0745H14.6101M5.40916 17.0745H14.6101M14.6101 17.0745C15.0108 17.0747 15.3072 17.0238 15.5248 16.9214C15.7457 16.8174 15.8814 16.6621 15.9616 16.4649C16.0403 16.2713 16.0646 16.0399 16.0707 15.7839C16.0742 15.6411 16.0719 15.4845 16.0696 15.3195C16.0677 15.1916 16.0658 15.0588 16.0664 14.9234C16.0675 14.6782 16.0608 14.5204 16.024 14.3832C15.9892 14.2537 15.9288 14.1468 15.8346 14.005L14.6101 17.0745ZM11.3374 12.4219C11.2369 12.538 11.2213 12.699 11.3144 12.8724L11.3374 12.4219ZM3.92668 12.7368C3.92907 12.8554 3.93138 12.9696 3.93123 13.0734L14.675 10.9984L14.6749 10.9234H14.6746C14.6746 10.9234 14.6745 10.9234 14.6745 10.9234L5.40924 10.9258C5.40924 10.9258 5.40923 10.9258 5.40923 10.9258C5.36925 10.9257 5.33005 10.9254 5.29153 10.925C4.96777 10.9219 4.69189 10.9193 4.40798 11.1089C4.17101 11.2671 3.97832 11.5292 3.94025 11.899L4.01485 11.9067L3.94025 11.899C3.91476 12.1467 3.92097 12.454 3.92668 12.7368ZM4.79627 14.5575C4.82689 14.4916 4.86902 14.4497 4.92903 14.4292L4.93485 14.4273C4.93422 14.4275 4.93388 14.4276 4.93389 14.4277C4.93392 14.4279 4.94067 14.4267 4.95961 14.4252C4.97963 14.4237 5.00745 14.4221 5.04296 14.4207C5.11385 14.4177 5.21304 14.4151 5.33703 14.4127C5.58488 14.408 5.93009 14.4045 6.34244 14.4019C7.16706 14.3968 8.25912 14.3954 9.3754 14.396C11.572 14.3971 13.8618 14.4057 14.3909 14.4077L14.4154 14.4078C14.5116 14.4082 14.598 14.4067 14.6748 14.4053L14.6761 14.4053C14.7538 14.404 14.8208 14.4028 14.8799 14.4038C15.0008 14.4058 15.0737 14.4171 15.1217 14.4432C15.163 14.4657 15.1951 14.5046 15.217 14.5934C15.2397 14.6855 15.2486 14.8203 15.2482 15.0203C15.248 15.1282 15.2521 15.2402 15.256 15.3496C15.2572 15.3814 15.2584 15.413 15.2594 15.4442C15.264 15.584 15.2664 15.7165 15.2578 15.8341C15.2492 15.9526 15.2299 16.0491 15.1953 16.1197C15.1622 16.1874 15.1164 16.2293 15.0498 16.2472C15.0529 16.2463 15.0475 16.2476 15.0231 16.2491C15.0024 16.2504 14.9737 16.2517 14.9371 16.2529C14.8641 16.2553 14.7617 16.2574 14.6338 16.2592C14.3781 16.263 14.0219 16.2656 13.5971 16.2675C12.7478 16.2711 11.6257 16.2715 10.4893 16.2703C8.93154 16.2686 7.34653 16.2641 6.40202 16.2614C5.96887 16.2602 5.67043 16.2593 5.57109 16.2593C5.47839 16.2593 5.39475 16.2611 5.32002 16.2628L5.3169 16.2629C5.24306 16.2646 5.17877 16.266 5.12172 16.2654C5.00331 16.2642 4.93002 16.2539 4.88084 16.2286C4.83833 16.2067 4.80532 16.1689 4.78239 16.0839C4.75848 15.9953 4.74826 15.8646 4.74867 15.6697C4.74892 15.5527 4.74458 15.4334 4.74039 15.3182C4.73936 15.2899 4.73834 15.2618 4.7374 15.2341C4.73259 15.0925 4.72984 14.9598 4.73755 14.8425C4.74532 14.7243 4.76337 14.6283 4.79627 14.5575ZM12.5871 5.48695C12.589 5.58238 12.5922 5.68964 12.5956 5.80411C12.5969 5.84724 12.5982 5.89139 12.5995 5.93632C12.6059 6.16004 12.6116 6.4044 12.6094 6.64289C12.6072 6.88162 12.5971 7.11274 12.5722 7.31017C12.5471 7.51 12.5078 7.66599 12.4527 7.7609C12.3281 7.97541 12.1212 8.17325 11.8671 8.35195C11.6136 8.53024 11.3172 8.68667 11.0182 8.81978L11.0487 8.88829L11.0182 8.81978C9.8315 9.34829 8.14867 9.59169 6.67263 9.59249C5.1986 9.5933 3.50181 9.3487 2.32606 8.82086C2.03476 8.69005 1.73528 8.53443 1.47663 8.35362C1.21733 8.17235 1.00374 7.96897 0.878591 7.74433C0.793157 7.59095 0.759786 7.42107 0.749133 7.23193C0.741853 7.1027 0.745208 6.96978 0.74877 6.82867C0.750499 6.76015 0.752278 6.68969 0.752911 6.61678L0.752911 6.61677C0.754202 6.46604 0.751759 6.31219 0.749316 6.15826C0.745697 5.93037 0.742079 5.70229 0.750568 5.4839C0.750804 5.48407 0.751041 5.48424 0.751278 5.4844C0.794734 5.51514 0.844437 5.553 0.897058 5.59354C0.9081 5.60204 0.919289 5.61068 0.930577 5.6194C1.02493 5.69227 1.12622 5.77049 1.20669 5.82072C1.38109 5.92959 1.60796 6.05908 1.82124 6.15774C4.21561 7.26586 7.587 7.29126 10.0985 6.66052C10.9917 6.43624 11.5867 6.14844 11.9882 5.90366C12.1888 5.78138 12.3403 5.67027 12.4551 5.58458C12.4652 5.57702 12.475 5.5697 12.4845 5.56261C12.5235 5.53343 12.5573 5.50823 12.5871 5.48695Z" fill="#434343" stroke="#434343" stroke-width="0.15"/>
</svg>
